<?xml version="1.0" encoding="utf-8"?>
<!-- Generator: Adobe Illustrator 22.1.0, SVG Export Plug-In . SVG Version: 6.00 Build 0)  -->
<svg version="1.1" id="Layer_1" xmlns="http://www.w3.org/2000/svg" xmlns:xlink="http://www.w3.org/1999/xlink" x="0px" y="0px"
	 viewBox="0 0 24 24" style="enable-background:new 0 0 24 24;" xml:space="preserve">
<style type="text/css">
	.st0{fill:#777777;}
	.st1{fill:#EE4444;}
	.st2{fill:#FFFFFF;}
</style>
<g>
	<path class="st0" d="M17,18c-1.1,0-2,0.9-2,2s0.9,2,2,2s2-0.9,2-2S18.1,18,17,18z"/>
	<path class="st0" d="M7,18c-1.1,0-2,0.9-2,2s0.9,2,2,2s2-0.9,2-2S8.1,18,7,18z"/>
	<path class="st0" d="M7.2,14.8l0-0.1L8.1,13h7.5c0.8,0,1.4-0.4,1.8-1l0.8-1.5c-2.6-0.3-4.6-2.5-4.6-5.2c0-0.4,0.1-0.8,0.2-1.3H5.2
		L4.3,2H1v2h2l3.6,7.6L5.3,14C5.1,14.3,5,14.7,5,15c0,1.1,0.9,2,2,2h12v-2H7.4C7.3,15,7.2,14.9,7.2,14.8z"/>
</g>
<g>
	<circle class="st1" cx="18.6" cy="5.2" r="4.3"/>
	<path class="st2" d="M20.2,6.8V6c0-0.4-0.3-0.8-0.8-0.8c0.4,0,0.8-0.3,0.8-0.8V3.7c0-0.6-0.5-1-1-1h-2v1h2v1h-1v1h1v1h-2v1h2
		C19.7,7.8,20.2,7.3,20.2,6.8"/>
</g>
</svg>
