<?xml version="1.0" encoding="iso-8859-1"?>
<!-- Generator: Adobe Illustrator 18.1.1, SVG Export Plug-In . SVG Version: 6.00 Build 0)  -->
<svg version="1.1" id="Capa_1" xmlns="http://www.w3.org/2000/svg" xmlns:xlink="http://www.w3.org/1999/xlink" x="0px" y="0px"
	 viewBox="0 0 16.207 16.207" style="enable-background:new 0 0 16.207 16.207;" xml:space="preserve">
<g>
	<g>
		<path style="fill:#030104;" d="M15.279,2.431H0.928C0.416,2.431,0,2.847,0,3.359v9.489c0,0.512,0.416,0.928,0.928,0.928h14.351
			c0.512,0,0.928-0.416,0.928-0.928v-9.49C16.207,2.847,15.791,2.431,15.279,2.431z M15.255,12.823L0.952,12.847L0.928,3.382
			l14.327-0.024V12.823z"/>
		<path style="fill:#030104;" d="M2.303,6.792l0.481,3.446h1.181l2.202-4.267H4.926L3.991,7.95C3.859,8.231,3.744,8.485,3.645,8.718
			c-0.018-0.243-0.038-0.479-0.062-0.72L3.394,5.972H1.506l1.963,1.553L2.303,6.792z"/>
		<polygon style="fill:#030104;" points="7.015,10.239 7.824,5.972 6.713,5.972 5.903,10.239 		"/>
		<path style="fill:#030104;" d="M7.666,9.987c0.26,0.195,0.718,0.311,1.225,0.311c1.051,0,1.757-0.594,1.757-1.477
			c0-0.483-0.282-0.866-0.861-1.169C9.463,7.47,9.266,7.348,9.266,7.194c0-0.144,0.151-0.299,0.509-0.299
			c0.349,0,0.615,0.137,0.666,0.164l0.126,0.069l0.355-0.95l-0.093-0.052c-0.266-0.147-0.596-0.218-1.009-0.218
			c-1.006,0-1.709,0.588-1.709,1.43c0,0.61,0.48,0.949,0.902,1.177c0.396,0.206,0.474,0.323,0.474,0.456
			c0,0.256-0.276,0.347-0.513,0.347c-0.309,0-0.631-0.087-0.884-0.239L7.965,9.005L7.589,9.931L7.666,9.987z"/>
		<path style="fill:#030104;" d="M11.72,10.239l0.477-1.043h0.962l0.084,1.043h1.154l-0.5-4.267h-1.291l-2.076,4.267H11.72z
			 M12.88,7.603c0.044-0.096,0.089-0.206,0.135-0.319c0.008,0.101,0.015,0.196,0.021,0.278l0.065,0.729h-0.54L12.88,7.603z"/>
	</g>
</g>
<g>
</g>
<g>
</g>
<g>
</g>
<g>
</g>
<g>
</g>
<g>
</g>
<g>
</g>
<g>
</g>
<g>
</g>
<g>
</g>
<g>
</g>
<g>
</g>
<g>
</g>
<g>
</g>
<g>
</g>
</svg>
