<svg height="496pt" viewBox="0 0 496 496" width="496pt" xmlns="http://www.w3.org/2000/svg"><path d="m96 448h96v16h-96zm0 0"/><path d="m136 272c-4.40625 0-8-3.585938-8-8h-16c0 10.414062 6.710938 19.214844 16 22.527344v9.472656h16v-9.472656c9.289062-3.3125 16-12.113282 16-22.527344 0-13.230469-10.769531-24-24-24-4.40625 0-8-3.585938-8-8s3.59375-8 8-8 8 3.585938 8 8h16c0-10.414062-6.710938-19.214844-16-22.527344v-9.472656h-16v9.472656c-9.289062 3.3125-16 12.113282-16 22.527344 0 13.230469 10.769531 24 24 24 4.40625 0 8 3.585938 8 8s-3.59375 8-8 8zm0 0"/><path d="m136 176c-16.089844 0-31.335938 5.238281-44.113281 15.167969l9.824219 12.640625c9.9375-7.730469 21.792968-11.808594 34.289062-11.808594 30.878906 0 56 25.128906 56 56 0 12.496094-4.078125 24.359375-11.800781 34.296875l12.632812 9.816406c9.921875-12.769531 15.167969-28.015625 15.167969-44.113281 0-39.703125-32.304688-72-72-72zm0 0"/><path d="m91.808594 213.710938-12.632813-9.832032c-9.929687 12.769532-15.175781 28.023438-15.175781 44.121094 0 39.703125 32.304688 72 72 72 16.089844 0 31.335938-5.238281 44.113281-15.167969l-9.816406-12.640625c-9.9375 7.730469-21.800781 11.808594-34.296875 11.808594-30.878906 0-56-25.128906-56-56 0-12.496094 4.078125-24.359375 11.808594-34.289062zm0 0"/><path d="m472 144h-184v-104c0-22.054688-17.945312-40-40-40h-208c-22.054688 0-40 17.945312-40 40v416c0 22.054688 17.945312 40 40 40h208c22.054688 0 40-17.945312 40-40v-104h184c13.230469 0 24-10.769531 24-24v-160c0-13.230469-10.769531-24-24-24zm8 24v24h-256v-24c0-4.414062 3.59375-8 8-8h240c4.40625 0 8 3.585938 8 8zm-272 130.359375c-16.511719 23.570313-43.207031 37.640625-72 37.640625-48.519531 0-88-39.480469-88-88s39.480469-88 88-88c28.792969 0 55.488281 14.070312 72 37.640625zm-168-282.359375h208c13.230469 0 24 10.769531 24 24v8h-256v-8c0-13.230469 10.769531-24 24-24zm208 464h-208c-13.230469 0-24-10.769531-24-24v-24h256v24c0 13.230469-10.769531 24-24 24zm24-64h-256v-352h256v80h-40c-13.230469 0-24 10.769531-24 24v5.175781c-19.175781-18.488281-44.777344-29.175781-72-29.175781-57.34375 0-104 46.65625-104 104s46.65625 104 104 104c27.222656 0 52.824219-10.6875 72-29.175781v5.175781c0 13.230469 10.769531 24 24 24h40zm200-80h-240c-4.40625 0-8-3.585938-8-8v-120h256v120c0 4.414062-3.59375 8-8 8zm0 0"/><path d="m424 240c-7.320312 0-14.097656 2.121094-20 5.566406-5.902344-3.445312-12.679688-5.566406-20-5.566406-22.054688 0-40 17.945312-40 40s17.945312 40 40 40c7.320312 0 14.097656-2.121094 20-5.566406 5.902344 3.445312 12.679688 5.566406 20 5.566406 22.054688 0 40-17.945312 40-40s-17.945312-40-40-40zm-20 53.214844c-2.519531-3.789063-4-8.328125-4-13.214844s1.480469-9.425781 4-13.214844c2.519531 3.789063 4 8.328125 4 13.214844s-1.480469 9.425781-4 13.214844zm-44-13.214844c0-13.230469 10.769531-24 24-24 2.519531 0 4.910156.496094 7.191406 1.222656-4.503906 6.472656-7.191406 14.304688-7.191406 22.777344s2.6875 16.304688 7.191406 22.777344c-2.28125.726562-4.671875 1.222656-7.191406 1.222656-13.230469 0-24-10.769531-24-24zm64 24c-2.519531 0-4.910156-.496094-7.191406-1.222656 4.503906-6.472656 7.191406-14.304688 7.191406-22.777344s-2.6875-16.304688-7.191406-22.777344c2.28125-.726562 4.671875-1.222656 7.191406-1.222656 13.230469 0 24 10.769531 24 24s-10.769531 24-24 24zm0 0"/><path d="m240 296h16v16h-16zm0 0"/><path d="m272 296h16v16h-16zm0 0"/><path d="m304 296h16v16h-16zm0 0"/><path d="m336 368h80v16h-80zm0 0"/><path d="m304 368h16v16h-16zm0 0"/><path d="m352 416h113.046875l-7.703125 11.558594 13.3125 8.882812 24.296875-36.441406h-142.953125zm0 0"/><path d="m384 112h80v16h-80zm0 0"/><path d="m480 112h16v16h-16zm0 0"/><path d="m456 80h-105.046875l7.703125-11.558594-13.3125-8.882812-24.296875 36.441406h134.953125zm0 0"/></svg>